<mxfile host="app.diagrams.net" modified="2024-12-26T21:51:14.019Z" agent="Mozilla/5.0 (X11; Ubuntu; Linux x86_64; rv:133.0) Gecko/20100101 Firefox/133.0" etag="fvIe8RWiqg_KzowYumRx" version="24.4.13" type="github">
  <diagram name="Page-1" id="74e2e168-ea6b-b213-b513-2b3c1d86103e">
    <mxGraphModel dx="819" dy="453" grid="1" gridSize="10" guides="1" tooltips="1" connect="1" arrows="1" fold="1" page="1" pageScale="1" pageWidth="1100" pageHeight="850" background="none" math="0" shadow="0">
      <root>
        <mxCell id="0" />
        <mxCell id="1" parent="0" />
        <mxCell id="77e6c97f196da883-1" value="Pool" style="swimlane;html=1;childLayout=stackLayout;startSize=20;rounded=0;shadow=0;labelBackgroundColor=none;strokeWidth=1;fontFamily=Verdana;fontSize=8;align=center;" parent="1" vertex="1">
          <mxGeometry x="60" y="30" width="400" height="760" as="geometry" />
        </mxCell>
        <mxCell id="77e6c97f196da883-2" value="Lane 1" style="swimlane;html=1;startSize=20;" parent="77e6c97f196da883-1" vertex="1">
          <mxGeometry y="20" width="160" height="740" as="geometry" />
        </mxCell>
        <mxCell id="77e6c97f196da883-10" value="" style="rounded=1;whiteSpace=wrap;html=1;shadow=0;labelBackgroundColor=none;strokeWidth=1;fontFamily=Verdana;fontSize=8;align=center;" parent="77e6c97f196da883-2" vertex="1">
          <mxGeometry x="30" y="600" width="100" height="60" as="geometry" />
        </mxCell>
        <mxCell id="IrJO0C0eZKBGSIj84g80-1" value="" style="shape=parallelogram;perimeter=parallelogramPerimeter;whiteSpace=wrap;html=1;fixedSize=1;" vertex="1" parent="77e6c97f196da883-2">
          <mxGeometry x="10" y="170" width="120" height="60" as="geometry" />
        </mxCell>
        <mxCell id="IrJO0C0eZKBGSIj84g80-5" value="" style="endArrow=classic;html=1;rounded=0;exitX=0.599;exitY=1.01;exitDx=0;exitDy=0;exitPerimeter=0;" edge="1" parent="77e6c97f196da883-2">
          <mxGeometry width="50" height="50" relative="1" as="geometry">
            <mxPoint x="79.89999999999998" y="125.55000000000007" as="sourcePoint" />
            <mxPoint x="79.71" y="170" as="targetPoint" />
          </mxGeometry>
        </mxCell>
        <mxCell id="IrJO0C0eZKBGSIj84g80-6" value="" style="endArrow=classic;html=1;rounded=0;exitX=0.599;exitY=1.01;exitDx=0;exitDy=0;exitPerimeter=0;" edge="1" parent="77e6c97f196da883-2">
          <mxGeometry width="50" height="50" relative="1" as="geometry">
            <mxPoint x="80" y="230.45" as="sourcePoint" />
            <mxPoint x="79.70999999999998" y="274.45" as="targetPoint" />
          </mxGeometry>
        </mxCell>
        <mxCell id="IrJO0C0eZKBGSIj84g80-7" value="" style="shape=parallelogram;perimeter=parallelogramPerimeter;whiteSpace=wrap;html=1;fixedSize=1;" vertex="1" parent="77e6c97f196da883-2">
          <mxGeometry x="10" y="274.45" width="120" height="60" as="geometry" />
        </mxCell>
        <mxCell id="IrJO0C0eZKBGSIj84g80-8" value="" style="endArrow=classic;html=1;rounded=0;exitX=0.599;exitY=1.01;exitDx=0;exitDy=0;exitPerimeter=0;" edge="1" parent="77e6c97f196da883-2">
          <mxGeometry width="50" height="50" relative="1" as="geometry">
            <mxPoint x="80" y="334.45" as="sourcePoint" />
            <mxPoint x="79.70999999999998" y="378.45" as="targetPoint" />
          </mxGeometry>
        </mxCell>
        <mxCell id="IrJO0C0eZKBGSIj84g80-9" value="" style="shape=parallelogram;perimeter=parallelogramPerimeter;whiteSpace=wrap;html=1;fixedSize=1;" vertex="1" parent="77e6c97f196da883-2">
          <mxGeometry x="10" y="378.45" width="120" height="60" as="geometry" />
        </mxCell>
        <mxCell id="IrJO0C0eZKBGSIj84g80-10" value="" style="endArrow=classic;html=1;rounded=0;exitX=0.599;exitY=1.01;exitDx=0;exitDy=0;exitPerimeter=0;" edge="1" parent="77e6c97f196da883-2">
          <mxGeometry width="50" height="50" relative="1" as="geometry">
            <mxPoint x="80" y="438.45" as="sourcePoint" />
            <mxPoint x="79.70999999999998" y="482.45000000000005" as="targetPoint" />
          </mxGeometry>
        </mxCell>
        <mxCell id="IrJO0C0eZKBGSIj84g80-11" value="" style="shape=parallelogram;perimeter=parallelogramPerimeter;whiteSpace=wrap;html=1;fixedSize=1;" vertex="1" parent="77e6c97f196da883-2">
          <mxGeometry x="10" y="482.45000000000005" width="120" height="60" as="geometry" />
        </mxCell>
        <mxCell id="IrJO0C0eZKBGSIj84g80-12" value="" style="ellipse;whiteSpace=wrap;html=1;" vertex="1" parent="77e6c97f196da883-2">
          <mxGeometry x="20" y="80" width="120" height="50" as="geometry" />
        </mxCell>
        <mxCell id="IrJO0C0eZKBGSIj84g80-13" value="&lt;div&gt;Start&lt;/div&gt;" style="text;html=1;align=center;verticalAlign=middle;whiteSpace=wrap;rounded=0;" vertex="1" parent="77e6c97f196da883-2">
          <mxGeometry x="50" y="90" width="60" height="30" as="geometry" />
        </mxCell>
        <mxCell id="77e6c97f196da883-3" value="Lane 2" style="swimlane;html=1;startSize=20;" parent="77e6c97f196da883-1" vertex="1">
          <mxGeometry x="160" y="20" width="160" height="740" as="geometry" />
        </mxCell>
      </root>
    </mxGraphModel>
  </diagram>
</mxfile>
